<svg width="324" height="66" viewBox="0 0 324 66" fill="none" xmlns="http://www.w3.org/2000/svg">
<path d="M102.239 1.41565V4.43165H94.0871V26.876H91.0701V4.43165H82.9189V1.41565H102.238H102.239Z" fill="black"/>
<path d="M94.9269 27.7163H90.2293V5.27195H82.0781V0.574341H103.079V5.27195H94.9269V27.7163ZM91.9099 26.0347H93.2453V3.59034H101.397V2.25497H83.7588V3.59034H91.9099V26.0347Z" fill="black"/>
<path d="M123.569 15.6713H110.283V26.8761H107.266V1.45044H110.283V12.691H123.569V1.45044H126.586V26.8761H123.569V15.6713Z" fill="black"/>
<path d="M127.426 27.7164H122.728V16.5116H111.122V27.7164H106.425V0.610107H111.122V11.8507H122.728V0.610107H127.426V27.7164ZM124.409 26.0348H125.744V2.29074H124.409V13.5313H109.441V2.29074H108.105V26.0348H109.441V14.8299H124.409V26.0348Z" fill="black"/>
<path d="M150.428 4.43167H137.142V12.6552H149.388V15.6712H137.142V23.8581H150.428V26.875H134.125V1.41467H150.428V4.43067V4.43167Z" fill="black"/>
<path d="M151.268 27.7164H133.283V0.575439H151.268V5.27305H137.982V11.815H150.227V16.5126H137.982V23.0188H151.268V27.7174V27.7164ZM134.965 26.0348H149.587V24.6985H136.301V14.83H148.547V13.4946H136.301V3.59045H149.587V2.25508H134.965V26.0348Z" fill="black"/>
<path d="M188.061 26.0497L185.727 27.6301L184.147 25.8344C182.351 26.8404 180.125 27.3781 177.898 27.3781C172.8 27.3781 167.736 24.6845 167.736 19.3698V8.95569C167.736 3.64098 172.8 0.984131 177.898 0.984131C182.997 0.984131 188.026 3.64098 188.026 8.95569V19.3698C188.026 21.1655 187.343 22.8174 186.374 24.0387L188.062 26.0487L188.061 26.0497ZM184.434 21.5257C184.866 20.9145 185.046 20.2319 185.046 19.3708V8.95668C185.046 5.43769 181.454 3.92968 177.864 3.92968C174.309 3.96441 170.753 5.50912 170.753 8.95668V19.3708C170.718 22.7459 174.308 24.3988 177.864 24.3988C179.587 24.3988 180.916 24.1468 182.352 23.4295C181.203 21.8858 180.987 21.7767 179.909 20.3411L182.352 18.7974L184.434 21.5266V21.5257Z" fill="black"/>
<path d="M185.585 28.7412L183.95 26.883C182.164 27.7471 180.042 28.2184 177.897 28.2184C172.429 28.2184 166.895 25.1795 166.895 19.3698V8.95566C166.895 2.90085 172.598 0.143799 177.897 0.143799C183.196 0.143799 188.865 2.90085 188.865 8.95566V19.3698C188.865 21.0018 188.363 22.6219 187.439 24.0019L189.303 26.2222L185.585 28.7402V28.7412ZM177.898 1.82442C173.408 1.82442 168.576 4.05566 168.576 8.95566V19.3698C168.576 24.2936 173.408 26.5368 177.898 26.5368C180.008 26.5368 182.082 26.0258 183.736 25.1002L184.329 24.7678L185.869 26.5179L186.818 25.875L185.288 24.0525L185.715 23.5148C186.662 22.3203 187.184 20.848 187.184 19.3688V8.95467C187.184 4.05467 182.37 1.82342 177.897 1.82342L177.898 1.82442ZM177.862 25.2381C175.211 25.2381 172.785 24.3849 171.371 22.9562C170.402 21.976 169.897 20.7329 169.912 19.3609V8.95566C169.912 4.95649 173.901 3.12705 177.854 3.08836C181.856 3.08836 185.885 4.90193 185.885 8.95566V19.3698C185.885 20.4323 185.642 21.2707 185.12 22.0098L184.46 22.9453L182.149 19.9174L181.137 20.5573C181.353 20.8302 181.533 21.0464 181.713 21.2617C182.064 21.6844 182.416 22.108 183.025 22.9265L183.624 23.7311L182.727 24.1795C181.242 24.9216 179.788 25.2381 177.862 25.2381ZM177.862 4.76998C174.974 4.79875 171.592 5.91189 171.592 8.95566V19.3698C171.582 20.3053 171.91 21.1109 172.565 21.7737C173.671 22.8908 175.65 23.5575 177.862 23.5575C179.109 23.5575 180.09 23.4156 181.028 23.0822C180.797 22.7896 180.608 22.5634 180.421 22.3372C180.093 21.9433 179.767 21.5514 179.236 20.8441L178.691 20.1158L182.553 17.6733L184.184 19.8103C184.198 19.6714 184.205 19.5256 184.205 19.3688V8.95467C184.205 5.86526 180.789 4.76899 177.863 4.76899L177.862 4.76998Z" fill="black"/>
<path d="M213.88 26.8761H210.182L201.958 16.4977H198.044V26.8761H195.027V1.45044H204.723C209.607 1.45044 213.306 3.641 213.413 9.06385C213.413 14.1266 210.037 16.2457 205.692 16.461L213.879 26.8751L213.88 26.8761ZM204.759 13.697C208.206 13.697 210.397 12.5481 210.397 9.06484C210.397 5.58156 208.063 4.396 204.759 4.46842H198.044V13.698H204.759V13.697Z" fill="black"/>
<path d="M215.611 27.7164H209.776L201.553 17.338H198.886V27.7164H194.188V0.610107H204.725C210.675 0.610107 214.149 3.68563 214.255 9.04697C214.255 13.5293 211.742 16.4094 207.295 17.1376L215.611 27.7154V27.7164ZM210.589 26.0348H212.151L204.028 15.702L205.652 15.6216C208.809 15.4649 212.574 14.1999 212.574 9.06382C212.462 3.46836 208.245 2.29074 204.725 2.29074H195.869V26.0348H197.204V15.6564H202.365L210.589 26.0348ZM204.759 14.5373H197.204V3.6271H204.759C207.016 3.58642 208.724 4.09438 209.817 5.16387C210.761 6.08653 211.239 7.39907 211.239 9.06482C211.239 12.6969 209.059 14.5383 204.76 14.5383L204.759 14.5373ZM198.885 12.8566H204.759C208.167 12.8566 209.557 11.7574 209.557 9.06482C209.557 7.85147 209.258 6.9695 208.641 6.3663C207.884 5.6252 206.577 5.26407 204.778 5.30871H198.885V12.8566Z" fill="black"/>
<path d="M239.664 1.1994C243.326 1.1994 247.026 2.85126 248.641 6.29783L245.948 7.66295C244.762 5.40095 242.141 4.21539 239.555 4.21539C236.287 4.21539 232.984 5.83154 232.984 9.13524V19.1902C232.984 22.4939 236.287 24.1101 239.555 24.1101C242.177 24.1101 244.798 22.9612 245.948 20.6992L248.641 21.9552C246.989 25.4028 243.218 27.1261 239.555 27.1261C234.779 27.1261 229.968 24.4692 229.968 19.1902V9.13524C229.968 3.89296 234.815 1.1994 239.664 1.1994Z" fill="black"/>
<path d="M239.556 27.9664C234.373 27.9664 229.127 24.9514 229.127 19.1902V9.13523C229.127 3.37408 234.427 0.35907 239.663 0.35907C244.056 0.35907 247.788 2.49805 249.403 5.94164L249.749 6.67977L245.589 8.788L245.204 8.05384C244.251 6.23333 242.033 5.05669 239.557 5.05669C236.796 5.05669 233.826 6.33353 233.826 9.13523V19.1902C233.826 21.9929 236.796 23.2687 239.557 23.2687C242.113 23.2687 244.275 22.1377 245.2 20.3172L245.568 19.593L249.768 21.5524L249.401 22.3183C247.757 25.749 243.893 27.9664 239.558 27.9664H239.556ZM239.663 2.04069C235.398 2.04069 230.809 4.26103 230.809 9.13623V19.1912C230.809 24.0664 235.343 26.2867 239.556 26.2867C242.916 26.2867 245.925 24.7609 247.47 22.3372L246.28 21.7826C244.921 23.7559 242.423 24.9523 239.556 24.9523C235.986 24.9523 232.144 23.1497 232.144 19.1922V9.13722C232.144 5.17971 235.986 3.37706 239.556 3.37706C242.33 3.37706 244.868 4.60627 246.258 6.56568L247.495 5.93866C245.745 3.0814 242.375 2.04169 239.664 2.04169L239.663 2.04069Z" fill="black"/>
<path d="M263.436 0.841309C268.499 0.841309 273.599 3.49816 273.599 8.81286V19.478C273.599 24.7937 268.499 27.4872 263.436 27.4872C258.372 27.4872 253.272 24.7937 253.272 19.478V8.81286C253.272 3.49816 258.336 0.841309 263.436 0.841309ZM256.254 19.478C256.254 22.8184 259.808 24.506 263.436 24.506C267.063 24.506 270.582 22.8184 270.617 19.478V8.81286C270.617 5.29288 266.99 3.78487 263.399 3.78487C259.808 3.82059 256.253 5.3653 256.253 8.81286V19.478H256.254Z" fill="black"/>
<path d="M263.435 28.3266C257.968 28.3266 252.432 25.2868 252.432 19.477V8.81188C252.432 2.75706 258.135 0 263.435 0C268.735 0 274.439 3.02692 274.439 8.81188V19.477C274.439 25.2868 268.903 28.3266 263.435 28.3266ZM263.435 1.68162C258.945 1.68162 254.113 3.91287 254.113 8.81287V19.478C254.113 24.4038 258.946 26.6459 263.435 26.6459C267.924 26.6459 272.757 24.4028 272.757 19.478V8.81287C272.757 3.91287 267.924 1.68162 263.435 1.68162ZM263.435 25.3463C259.571 25.3463 255.413 23.5099 255.413 19.478V8.81287C255.413 4.81469 259.42 2.98425 263.391 2.94457C267.41 2.94457 271.458 4.75913 271.458 8.81287V19.478C271.415 23.5129 267.269 25.3463 263.436 25.3463H263.435ZM263.399 4.62519C260.495 4.65396 257.094 5.76909 257.094 8.81287V19.478C257.094 22.3551 260.38 23.6657 263.435 23.6657C266.49 23.6657 269.746 22.3521 269.777 19.4691V8.81287C269.777 5.72247 266.341 4.62519 263.399 4.62519Z" fill="black"/>
<path d="M280.562 26.8761V1.45044H289.181C294.028 1.45044 298.841 3.71344 298.841 9.10056V19.2617C298.841 24.6131 294.029 26.8751 289.181 26.8751H280.562V26.8761ZM289.181 23.8581C292.52 23.8581 295.824 22.5654 295.824 19.2617V9.10056C295.824 5.76015 292.52 4.46842 289.181 4.46842H283.543V23.8591H289.181V23.8581Z" fill="black"/>
<path d="M289.181 27.7164H279.723V0.610107H289.181C294.025 0.610107 299.682 2.83441 299.682 9.10054V19.2617C299.682 25.502 294.026 27.7164 289.181 27.7164ZM281.403 26.0348H289.181C293.25 26.0348 298 24.2609 298 19.2617V9.10054C298 4.07454 293.249 2.29074 289.181 2.29074H281.403V26.0348ZM289.181 24.6994H282.703V3.62809H289.181C293.727 3.62809 296.666 5.77599 296.666 9.10152V19.2627C296.666 22.5654 293.728 24.6994 289.181 24.6994ZM284.385 23.0178H289.182C290.152 23.0178 294.985 22.8362 294.985 19.2617V9.10054C294.985 5.49127 290.152 5.30871 289.182 5.30871H284.385V23.0188V23.0178Z" fill="black"/>
<path d="M321.824 4.43154H308.537V12.6551H320.783V15.6711H308.537V23.8579H321.824V26.8749H305.521V1.41455H321.824V4.43055V4.43154Z" fill="black"/>
<path d="M322.664 27.7164H304.679V0.575439H322.664V5.27305H309.377V11.815H321.623V16.5126H309.377V23.0188H322.664V27.7174V27.7164ZM306.36 26.0348H320.983V24.6985H307.697V14.83H319.942V13.4946H307.697V3.59045H320.983V2.25508H306.36V26.0348Z" fill="black"/>
<path d="M83.0996 44.3868C83.0996 38.5493 88.457 35.5511 93.8143 35.5511C97.8522 35.5511 101.97 37.4699 103.81 41.3083L100.771 42.7479C99.5318 40.2289 96.5734 38.9094 93.735 38.9094C90.0969 38.9094 86.4182 40.7091 86.4182 44.3868V55.7811C86.4182 59.5392 90.1366 61.3389 93.8143 61.3389C97.4921 61.3389 101.251 59.5392 101.251 55.7811V52.9427H92.8947V49.6241H104.57V55.7811C104.57 61.7784 99.2124 64.7369 93.8143 64.7369C88.4163 64.7369 83.0996 61.7784 83.0996 55.7811V44.3868Z" fill="black"/>
<path d="M93.8138 65.5752C88.2491 65.5752 82.2607 62.5105 82.2607 55.7811V44.3868C82.2607 38.0353 88.0725 34.7128 93.8138 34.7128C98.6037 34.7128 102.723 37.1008 104.565 40.9462L104.929 41.7061L100.383 43.86L100.017 43.1189C99.0104 41.0722 96.5441 39.7487 93.7334 39.7487C90.6133 39.7487 87.256 41.2001 87.256 44.3878V55.7821C87.256 59.0243 90.6549 60.5015 93.8138 60.5015C96.9727 60.5015 100.411 59.0253 100.411 55.7821V53.782H92.0548V48.7858H105.407V55.7821C105.407 62.5115 99.3964 65.5761 93.8128 65.5761L93.8138 65.5752ZM93.8138 36.3894C89.0567 36.3894 83.9384 38.8915 83.9384 44.3868V55.7811C83.9384 61.3577 89.0577 63.8985 93.8138 63.8985C98.57 63.8985 103.73 61.3587 103.73 55.7811V50.4624H93.7324V52.1034H102.089V55.7801C102.089 60.1751 97.7991 62.1762 93.8138 62.1762C89.8285 62.1762 85.5783 60.1741 85.5783 55.7801V44.3858C85.5783 40.0463 89.8057 38.0701 93.7334 38.0701C96.8516 38.0701 99.6523 39.455 101.11 41.6585L102.651 40.9283C100.642 37.5998 96.8407 36.3904 93.8128 36.3904L93.8138 36.3894Z" fill="black"/>
<path d="M130.877 39.3489H116.084V48.505H129.717V51.8633H116.084V60.9787H130.877V64.337H112.726V35.9906H130.877V39.3489Z" fill="black"/>
<path d="M131.717 65.1752H111.888V35.1512H131.717V40.1871H116.924V47.6656H130.557V52.7015H116.924V60.1403H131.717V65.1762V65.1752ZM113.565 63.4986H130.039V61.8179H115.246V51.0248H128.879V49.3432H115.246V38.5104H130.039V36.8298H113.565V63.4986Z" fill="black"/>
<path d="M142.273 36.0302L156.826 59.419V36.0302H160.185V64.3369H155.946L142.032 41.9074V64.3369H138.674V36.0302H142.272H142.273Z" fill="black"/>
<path d="M161.023 65.1752H155.48L142.871 44.8499V65.1752H137.835V35.1908H142.738L155.987 56.4833V35.1908H161.022V65.1752H161.023ZM156.414 63.4985H159.347V36.8694H157.665V62.3556L141.807 36.8694H139.514V63.4985H141.194V38.9648L156.414 63.4985Z" fill="black"/>
<path d="M187.373 39.3488H172.58V48.5049H186.213V51.8632H172.58V60.9787H187.373V64.337H169.222V35.9905H187.373V39.3488Z" fill="black"/>
<path d="M188.212 65.1752H168.383V35.1512H188.212V40.1871H173.419V47.6656H187.052V52.7015H173.419V60.1403H188.212V65.1762V65.1752ZM170.06 63.4986H186.534V61.8179H171.741V51.0248H185.375V49.3432H171.741V38.5104H186.534V36.8298H170.06V63.4986Z" fill="black"/>
<path d="M216.161 64.337H212.043L202.887 52.783H198.528V64.337H195.17V36.0303H205.965C211.403 36.0303 215.52 38.4689 215.64 44.5058C215.64 50.143 211.882 52.5022 207.044 52.7423L216.16 64.337H216.161ZM206.005 49.6638C209.843 49.6638 212.282 48.3839 212.282 44.5058C212.282 40.6277 209.683 39.3082 206.005 39.3886H198.528V49.6638H206.005Z" fill="black"/>
<path d="M217.887 65.1753H211.636L202.48 53.6212H199.367V65.1753H194.331V35.1909H205.964C212.528 35.1909 216.361 38.5799 216.479 44.4889C216.479 49.4782 213.648 52.6649 208.648 53.4258L217.887 65.1753ZM212.447 63.4986H214.433L205.382 51.9853L207.003 51.9049C210.561 51.7283 214.802 50.3007 214.802 44.5058C214.676 38.197 209.928 36.8686 205.965 36.8686H196.01V63.4976H197.69V51.9436H203.293L212.449 63.4976L212.447 63.4986ZM206.004 50.503H197.689V38.5502H206.004C208.505 38.5055 210.37 39.0621 211.567 40.2338C212.598 41.2428 213.121 42.6803 213.121 44.5068C213.121 48.4861 210.727 50.503 206.004 50.503ZM199.367 48.8254H206.005C209.817 48.8254 211.444 47.5337 211.444 44.5058C211.444 43.1277 211.101 42.1227 210.395 41.4322C209.532 40.588 208.07 40.1911 206.024 40.2268H199.368V48.8254H199.367Z" fill="black"/>
<path d="M230.394 36.0303H234.472L244.708 64.337H241.19L237.911 55.2612H226.996C225.956 58.2207 224.797 61.3785 223.797 64.337H220.238L230.393 36.0303H230.394ZM236.752 51.9029C235.193 47.5446 234.034 44.1467 232.434 39.6286C230.995 43.7865 229.636 47.6647 228.116 51.9029H236.752Z" fill="black"/>
<path d="M245.903 65.1753H240.601L237.322 56.0995H227.59C227.283 56.9666 226.969 57.8486 226.651 58.7355C225.949 60.7039 225.237 62.696 224.592 64.6048L224.399 65.1753H219.047L229.804 35.1909H235.061L245.903 65.1753ZM241.779 63.4986H243.513L233.885 36.8696H230.986L221.432 63.4986H223.198C223.792 61.7565 224.436 59.9538 225.073 58.172C225.457 57.0956 225.839 56.0271 226.206 54.9834L226.403 54.4228H238.501L241.78 63.4986H241.779ZM237.942 52.7412H226.924L227.327 51.6192C228.846 47.3839 230.203 43.5087 231.643 39.3538L232.426 37.0898L233.226 39.3478C233.917 41.2993 234.526 43.0414 235.12 44.7429C235.902 46.9791 236.658 49.1439 237.543 51.6192L237.944 52.7402L237.942 52.7412ZM229.306 51.0646H235.561C234.842 49.0397 234.197 47.1944 233.535 45.2975C233.179 44.2816 232.82 43.2508 232.439 42.1694C231.407 45.1387 230.394 48.0208 229.306 51.0636V51.0646Z" fill="black"/>
<path d="M265.979 35.9906V39.3489H256.903V64.337H253.545V39.3489H244.469V35.9906H265.979Z" fill="black"/>
<path d="M257.741 65.1753H252.705V40.1872H243.629V35.1512H266.816V40.1872H257.741V65.1753ZM254.382 63.4987H256.063V38.5105H265.139V36.8299H245.307V38.5105H254.382V63.4987Z" fill="black"/>
<path d="M281.573 35.3507C287.21 35.3507 292.888 38.3102 292.888 44.2271V56.1016C292.888 62.0185 287.211 65.0176 281.573 65.0176C275.935 65.0176 270.258 62.0185 270.258 56.1016V44.2271C270.258 38.3102 275.895 35.3507 281.573 35.3507ZM273.576 56.1006C273.576 59.819 277.535 61.698 281.573 61.698C285.611 61.698 289.529 59.819 289.569 56.1006V44.2261C289.569 40.3083 285.531 38.6286 281.533 38.6286C277.535 38.6693 273.576 40.3876 273.576 44.2261V56.1006Z" fill="black"/>
<path d="M281.572 65.8559C275.533 65.8559 269.419 62.5056 269.419 56.1015V44.227C269.419 37.5522 275.719 34.5123 281.572 34.5123C287.426 34.5123 293.726 37.8488 293.726 44.227V56.1015C293.726 62.5056 287.611 65.8559 281.572 65.8559ZM281.572 36.189C276.526 36.189 271.097 38.704 271.097 44.226V56.1005C271.097 61.6504 276.527 64.1772 281.572 64.1772C286.617 64.1772 292.048 61.6494 292.048 56.1005V44.226C292.048 38.704 286.617 36.189 281.572 36.189ZM281.572 62.5373C277.317 62.5373 272.738 60.5233 272.738 56.1005V44.226C272.738 39.8409 277.15 37.8339 281.524 37.7893C285.95 37.7893 290.407 39.7794 290.407 44.226V56.1005C290.359 60.5253 285.794 62.5373 281.572 62.5373ZM281.533 39.4679C278.254 39.5016 274.415 40.7676 274.415 44.227V56.1015C274.415 59.3715 278.126 60.8606 281.573 60.8606C285.021 60.8606 288.696 59.3685 288.731 56.0926V44.227C288.731 40.714 284.854 39.4679 281.534 39.4679H281.533Z" fill="black"/>
<path d="M322.273 64.337H318.155L308.999 52.783H304.64V64.337H301.282V36.0303H312.077C317.515 36.0303 321.632 38.4689 321.752 44.5058C321.752 50.143 317.994 52.5022 313.157 52.7423L322.272 64.337H322.273ZM312.118 49.6638C315.956 49.6638 318.395 48.3839 318.395 44.5058C318.395 40.6277 315.797 39.3082 312.118 39.3886H304.641V49.6638H312.118Z" fill="black"/>
<path d="M324 65.1753H317.75L308.593 53.6212H305.48V65.1753H300.444V35.1909H312.078C318.642 35.1909 322.474 38.5799 322.592 44.4889C322.592 49.4782 319.762 52.6649 314.761 53.4258L324 65.1753ZM318.56 63.4986H320.546L311.495 51.9853L313.117 51.9049C316.674 51.7283 320.915 50.3007 320.915 44.5058C320.789 38.197 316.041 36.8686 312.079 36.8686H302.123V63.4976H303.804V51.9436H309.406L318.562 63.4976L318.56 63.4986ZM312.117 50.503H303.803V38.5502H312.117C314.61 38.5055 316.483 39.0621 317.68 40.2338C318.711 41.2428 319.234 42.6803 319.234 44.5068C319.234 48.4861 316.84 50.503 312.117 50.503ZM305.479 48.8254H312.117C315.929 48.8254 317.556 47.5337 317.556 44.5058C317.556 43.1277 317.213 42.1227 316.508 41.4322C315.644 40.588 314.183 40.1911 312.136 40.2268H305.48V48.8254H305.479Z" fill="black"/>
<path d="M56.7577 43.4272H45.8584C45.0666 43.4272 44.4248 44.0691 44.4248 44.8608V55.7601C44.4248 56.5519 45.0666 57.1937 45.8584 57.1937H56.7577C57.5494 57.1937 58.1912 56.5519 58.1912 55.7601V44.8608C58.1912 44.0691 57.5494 43.4272 56.7577 43.4272Z" fill="#060606"/>
<path opacity="0.91" d="M65.849 22.0207L20.4423 65.0096L0.621094 45.1883L44.8193 1.2738L65.849 22.0207Z" fill="url(#paint0_linear_19413_180)"/>
<path d="M53.3212 47.1576H49.2952C48.6656 47.1576 48.1553 47.668 48.1553 48.2975V52.3235C48.1553 52.9531 48.6656 53.4634 49.2952 53.4634H53.3212C53.9507 53.4634 54.4611 52.9531 54.4611 52.3235V48.2975C54.4611 47.668 53.9507 47.1576 53.3212 47.1576Z" fill="white"/>
<path d="M64.3802 0.786743H46.054C45.0442 0.786743 44.2256 1.60536 44.2256 2.61518V20.9413C44.2256 21.9512 45.0442 22.7698 46.054 22.7698H64.3802C65.39 22.7698 66.2086 21.9512 66.2086 20.9413V2.61518C66.2086 1.60536 65.39 0.786743 64.3802 0.786743Z" fill="#060606"/>
<path d="M61.148 4.01892H49.2874C48.2776 4.01892 47.459 4.83755 47.459 5.84737V17.708C47.459 18.7178 48.2776 19.5364 49.2874 19.5364H61.148C62.1579 19.5364 62.9765 18.7178 62.9765 17.708V5.84737C62.9765 4.83755 62.1579 4.01892 61.148 4.01892Z" fill="#F5F5F5"/>
<path d="M58.3992 6.83167H52.2611C51.2512 6.83167 50.4326 7.65029 50.4326 8.66012V14.7983C50.4326 15.8081 51.2512 16.6267 52.2611 16.6267H58.3992C59.409 16.6267 60.2277 15.8081 60.2277 14.7983V8.66012C60.2277 7.65029 59.409 6.83167 58.3992 6.83167Z" fill="#060606"/>
<path d="M20.1546 0.786743H1.82845C0.818625 0.786743 0 1.60536 0 2.61518V20.9413C0 21.9512 0.818625 22.7698 1.82845 22.7698H20.1546C21.1644 22.7698 21.983 21.9512 21.983 20.9413V2.61518C21.983 1.60536 21.1644 0.786743 20.1546 0.786743Z" fill="#060606"/>
<path d="M16.9215 4.01904H5.06087C4.05105 4.01904 3.23242 4.83767 3.23242 5.8475V17.7081C3.23242 18.7179 4.05105 19.5365 5.06087 19.5365H16.9215C17.9313 19.5365 18.7499 18.7179 18.7499 17.7081V5.8475C18.7499 4.83767 17.9313 4.01904 16.9215 4.01904Z" fill="#F5F5F5"/>
<path d="M14.1727 6.83167H8.0345C7.02468 6.83167 6.20605 7.65029 6.20605 8.66012V14.7983C6.20605 15.8081 7.02468 16.6267 8.0345 16.6267H14.1727C15.1825 16.6267 16.0011 15.8081 16.0011 14.7983V8.66012C16.0011 7.65029 15.1825 6.83167 14.1727 6.83167Z" fill="#060606"/>
<path d="M20.1546 43.2269H1.82845C0.818625 43.2269 0 44.0455 0 45.0554V63.3815C0 64.3913 0.818625 65.21 1.82845 65.21H20.1546C21.1644 65.21 21.983 64.3913 21.983 63.3815V45.0554C21.983 44.0455 21.1644 43.2269 20.1546 43.2269Z" fill="#060606"/>
<path d="M16.9215 46.4594H5.06087C4.05105 46.4594 3.23242 47.278 3.23242 48.2878V60.1484C3.23242 61.1582 4.05105 61.9768 5.06087 61.9768H16.9215C17.9313 61.9768 18.7499 61.1582 18.7499 60.1484V48.2878C18.7499 47.278 17.9313 46.4594 16.9215 46.4594Z" fill="#F5F5F5"/>
<path d="M14.1727 49.2719H8.0345C7.02468 49.2719 6.20605 50.0905 6.20605 51.1003V57.2385C6.20605 58.2483 7.02468 59.0669 8.0345 59.0669H14.1727C15.1825 59.0669 16.0011 58.2483 16.0011 57.2385V51.1003C16.0011 50.0905 15.1825 49.2719 14.1727 49.2719Z" fill="#060606"/>
<defs>
<linearGradient id="paint0_linear_19413_180" x1="11.0223" y1="52.9982" x2="52.4456" y2="14.9331" gradientUnits="userSpaceOnUse">
<stop stop-color="white" stop-opacity="0"/>
<stop offset="1" stop-color="#FA1F31"/>
</linearGradient>
</defs>
</svg>
